<?xml version="1.0" encoding="UTF-8"?>
<svg xmlns="http://www.w3.org/2000/svg" xmlns:xlink="http://www.w3.org/1999/xlink" width="14" height="14" viewBox="0 0 14 14" version="1.1">
<g id="surface1">
<path style=" stroke:none;fill-rule:nonzero;fill:rgb(0%,0%,0%);fill-opacity:1;" d="M 11.949219 9.050781 C 11.191406 8.289062 10.277344 7.722656 9.289062 7.382812 C 10.347656 6.652344 11.046875 5.429688 11.046875 4.046875 C 11.046875 1.816406 9.230469 0 7 0 C 4.769531 0 2.953125 1.816406 2.953125 4.046875 C 2.953125 5.429688 3.648438 6.652344 4.710938 7.382812 C 3.722656 7.722656 2.808594 8.289062 2.050781 9.050781 C 0.730469 10.371094 0 12.128906 0 14 L 1.09375 14 C 1.09375 10.742188 3.742188 8.09375 7 8.09375 C 10.257812 8.09375 12.90625 10.742188 12.90625 14 L 14 14 C 14 12.128906 13.269531 10.371094 11.949219 9.050781 Z M 7 7 C 5.371094 7 4.046875 5.675781 4.046875 4.046875 C 4.046875 2.417969 5.371094 1.09375 7 1.09375 C 8.628906 1.09375 9.953125 2.417969 9.953125 4.046875 C 9.953125 5.675781 8.628906 7 7 7 Z M 7 7 "/>
</g>
</svg>
